<mxfile host="Electron" modified="2023-05-05T03:46:51.207Z" agent="Mozilla/5.0 (Windows NT 10.0; Win64; x64) AppleWebKit/537.36 (KHTML, like Gecko) draw.io/21.1.2 Chrome/106.0.5249.199 Electron/21.4.3 Safari/537.36" etag="SJe-eX5yT1SlPI207p6t" version="21.1.2" type="device">
  <diagram id="aW8BC6xyf7XYzy20FpQa" name="Page-1">
    <mxGraphModel dx="1014" dy="617" grid="1" gridSize="10" guides="1" tooltips="1" connect="1" arrows="1" fold="1" page="1" pageScale="1" pageWidth="827" pageHeight="1169" math="0" shadow="0">
      <root>
        <mxCell id="0" />
        <mxCell id="1" parent="0" />
        <mxCell id="qKfENgX-lE7Lz8fzQS4i-67" value="" style="rounded=1;whiteSpace=wrap;html=1;fillColor=#D5E8D4;" parent="1" vertex="1">
          <mxGeometry x="354" y="296" width="279" height="79" as="geometry" />
        </mxCell>
        <mxCell id="qKfENgX-lE7Lz8fzQS4i-65" value="" style="rounded=1;whiteSpace=wrap;html=1;fillColor=#D5E8D4;" parent="1" vertex="1">
          <mxGeometry x="344" y="286" width="279" height="79" as="geometry" />
        </mxCell>
        <mxCell id="qKfENgX-lE7Lz8fzQS4i-13" value="" style="rounded=0;whiteSpace=wrap;html=1;fillColor=#F0F0F0;strokeColor=#36393d;" parent="1" vertex="1">
          <mxGeometry x="131" y="286" width="130" height="82" as="geometry" />
        </mxCell>
        <mxCell id="qKfENgX-lE7Lz8fzQS4i-1" value="" style="rounded=0;whiteSpace=wrap;html=1;fillColor=#F0F0F0;strokeColor=#36393d;" parent="1" vertex="1">
          <mxGeometry x="122" y="276" width="130" height="82" as="geometry" />
        </mxCell>
        <mxCell id="qKfENgX-lE7Lz8fzQS4i-7" value="" style="rounded=0;whiteSpace=wrap;html=1;fillColor=#F0F0F0;strokeColor=#36393d;" parent="1" vertex="1">
          <mxGeometry x="113" y="266" width="130" height="82" as="geometry" />
        </mxCell>
        <mxCell id="qKfENgX-lE7Lz8fzQS4i-8" value="Nodejs SDK" style="rounded=1;whiteSpace=wrap;html=1;fontSize=11;fillColor=#CCCCCC;strokeColor=#000000;" parent="1" vertex="1">
          <mxGeometry x="119" y="322" width="114" height="20" as="geometry" />
        </mxCell>
        <mxCell id="qKfENgX-lE7Lz8fzQS4i-9" value="" style="endArrow=none;dashed=1;html=1;rounded=0;fontColor=#000000;shape=link;sketch=0;width=0;" parent="1" edge="1">
          <mxGeometry width="50" height="50" relative="1" as="geometry">
            <mxPoint x="234" y="316.99999999999955" as="sourcePoint" />
            <mxPoint x="119" y="316.99999999999955" as="targetPoint" />
          </mxGeometry>
        </mxCell>
        <mxCell id="qKfENgX-lE7Lz8fzQS4i-10" value="" style="html=1;shadow=0;dashed=0;align=center;verticalAlign=middle;shape=mxgraph.arrows2.twoWayArrow;dy=0.8;dx=1.0;fontColor=#ffffff;strokeColor=#432D57;fillColor=#76608a;direction=south;" parent="1" vertex="1">
          <mxGeometry x="177" y="305" width="6" height="10" as="geometry" />
        </mxCell>
        <mxCell id="qKfENgX-lE7Lz8fzQS4i-11" value="&lt;font style=&quot;font-size: 10px;&quot;&gt;Peer.Client&lt;/font&gt;" style="shape=document;whiteSpace=wrap;html=1;boundedLbl=1;fillColor=#fad9d5;strokeColor=#ae4132;" parent="1" vertex="1">
          <mxGeometry x="146" y="272" width="66" height="33" as="geometry" />
        </mxCell>
        <mxCell id="qKfENgX-lE7Lz8fzQS4i-15" value="" style="rounded=1;whiteSpace=wrap;html=1;fillColor=#D5E8D4;shadow=0;" parent="1" vertex="1">
          <mxGeometry x="309" y="266" width="304" height="88" as="geometry" />
        </mxCell>
        <mxCell id="qKfENgX-lE7Lz8fzQS4i-41" value="&lt;font style=&quot;font-size: 10px;&quot;&gt;Consensus&lt;/font&gt;" style="rounded=1;whiteSpace=wrap;html=1;fillColor=#CCE5FF;strokeColor=#000000;" parent="1" vertex="1">
          <mxGeometry x="344" y="273" width="92" height="20" as="geometry" />
        </mxCell>
        <mxCell id="qKfENgX-lE7Lz8fzQS4i-42" value="&lt;font style=&quot;font-size: 10px;&quot;&gt;Replicated WAL&lt;/font&gt;" style="rounded=0;whiteSpace=wrap;html=1;fillColor=#CCE5FF;strokeColor=#000000;" parent="1" vertex="1">
          <mxGeometry x="343" y="304" width="94" height="25" as="geometry" />
        </mxCell>
        <mxCell id="qKfENgX-lE7Lz8fzQS4i-47" value="&lt;font style=&quot;font-size: 10px;&quot;&gt;Replicated State Machine&lt;/font&gt;" style="rounded=0;whiteSpace=wrap;html=1;fillColor=#CCE5FF;strokeColor=#000000;" parent="1" vertex="1">
          <mxGeometry x="477" y="272" width="128" height="27" as="geometry" />
        </mxCell>
        <mxCell id="qKfENgX-lE7Lz8fzQS4i-48" value="&lt;font style=&quot;font-size: 10px;&quot;&gt;Key 1: Value 1&lt;br&gt;Key 2: Value 2&lt;br&gt;&lt;br&gt;&lt;/font&gt;" style="rounded=0;whiteSpace=wrap;html=1;fillColor=#CCE5FF;strokeColor=#000000;" parent="1" vertex="1">
          <mxGeometry x="477" y="299" width="128" height="48" as="geometry" />
        </mxCell>
        <mxCell id="qKfENgX-lE7Lz8fzQS4i-56" value="" style="endArrow=none;html=1;rounded=0;fontSize=10;curved=1;" parent="1" edge="1">
          <mxGeometry width="50" height="50" relative="1" as="geometry">
            <mxPoint x="319" y="289" as="sourcePoint" />
            <mxPoint x="344" y="289" as="targetPoint" />
          </mxGeometry>
        </mxCell>
        <mxCell id="qKfENgX-lE7Lz8fzQS4i-57" value="" style="endArrow=none;html=1;rounded=0;fontSize=10;curved=1;" parent="1" edge="1">
          <mxGeometry width="50" height="50" relative="1" as="geometry">
            <mxPoint x="319.5" y="371" as="sourcePoint" />
            <mxPoint x="319" y="289" as="targetPoint" />
          </mxGeometry>
        </mxCell>
        <mxCell id="qKfENgX-lE7Lz8fzQS4i-58" value="" style="endArrow=classic;html=1;rounded=0;fontSize=10;curved=1;" parent="1" edge="1">
          <mxGeometry width="50" height="50" relative="1" as="geometry">
            <mxPoint x="319" y="316" as="sourcePoint" />
            <mxPoint x="342" y="316" as="targetPoint" />
          </mxGeometry>
        </mxCell>
        <mxCell id="qKfENgX-lE7Lz8fzQS4i-59" value="" style="endArrow=classic;html=1;rounded=0;fontSize=10;curved=1;" parent="1" edge="1">
          <mxGeometry width="50" height="50" relative="1" as="geometry">
            <mxPoint x="437" y="316" as="sourcePoint" />
            <mxPoint x="476" y="316" as="targetPoint" />
          </mxGeometry>
        </mxCell>
        <mxCell id="qKfENgX-lE7Lz8fzQS4i-61" value="" style="endArrow=classic;html=1;rounded=0;fontSize=10;curved=1;" parent="1" edge="1">
          <mxGeometry width="50" height="50" relative="1" as="geometry">
            <mxPoint x="257" y="280" as="sourcePoint" />
            <mxPoint x="343" y="280" as="targetPoint" />
          </mxGeometry>
        </mxCell>
        <mxCell id="qKfENgX-lE7Lz8fzQS4i-62" value="1" style="ellipse;whiteSpace=wrap;html=1;aspect=fixed;fontSize=10;strokeColor=#000000;fillColor=#FFFFFF;fontStyle=1" parent="1" vertex="1">
          <mxGeometry x="271" y="238" width="11" height="11" as="geometry" />
        </mxCell>
        <mxCell id="qKfENgX-lE7Lz8fzQS4i-66" value="" style="endArrow=classic;html=1;rounded=0;fontSize=10;curved=1;" parent="1" edge="1">
          <mxGeometry width="50" height="50" relative="1" as="geometry">
            <mxPoint x="320" y="361" as="sourcePoint" />
            <mxPoint x="343.0000000000001" y="361" as="targetPoint" />
          </mxGeometry>
        </mxCell>
        <mxCell id="qKfENgX-lE7Lz8fzQS4i-69" value="" style="endArrow=classic;html=1;rounded=0;fontSize=10;curved=1;" parent="1" edge="1">
          <mxGeometry width="50" height="50" relative="1" as="geometry">
            <mxPoint x="319" y="371" as="sourcePoint" />
            <mxPoint x="353.0000000000001" y="371" as="targetPoint" />
          </mxGeometry>
        </mxCell>
        <mxCell id="qKfENgX-lE7Lz8fzQS4i-71" value="2" style="ellipse;whiteSpace=wrap;html=1;aspect=fixed;fontSize=10;strokeColor=#000000;fillColor=#FFFFFF;fontStyle=1" parent="1" vertex="1">
          <mxGeometry x="303" y="359" width="11" height="11" as="geometry" />
        </mxCell>
        <mxCell id="qKfENgX-lE7Lz8fzQS4i-72" value="3" style="ellipse;whiteSpace=wrap;html=1;aspect=fixed;fontSize=10;strokeColor=#000000;fillColor=#FFFFFF;fontStyle=1" parent="1" vertex="1">
          <mxGeometry x="448" y="320" width="11" height="11" as="geometry" />
        </mxCell>
        <mxCell id="qKfENgX-lE7Lz8fzQS4i-73" value="&lt;font color=&quot;#000000&quot;&gt;Request &lt;br&gt;(Key 3: Value 3)&lt;/font&gt;" style="text;html=1;strokeColor=none;fillColor=none;align=center;verticalAlign=middle;whiteSpace=wrap;rounded=0;shadow=0;fontSize=10;fontColor=#0000CC;" parent="1" vertex="1">
          <mxGeometry x="265" y="237" width="80" height="30" as="geometry" />
        </mxCell>
        <mxCell id="qKfENgX-lE7Lz8fzQS4i-75" value="4" style="ellipse;whiteSpace=wrap;html=1;aspect=fixed;fontSize=10;strokeColor=#000000;fillColor=#FFFFFF;fontStyle=1" parent="1" vertex="1">
          <mxGeometry x="580" y="379" width="11" height="11" as="geometry" />
        </mxCell>
        <mxCell id="qKfENgX-lE7Lz8fzQS4i-77" value="gRPC &#xa;broadcast" style="text;strokeColor=none;fillColor=none;align=left;verticalAlign=middle;spacingLeft=4;spacingRight=4;overflow=hidden;points=[[0,0.5],[1,0.5]];portConstraint=eastwest;rotatable=0;fontSize=10;fontColor=#000000;" parent="1" vertex="1">
          <mxGeometry x="267" y="357" width="88" height="30" as="geometry" />
        </mxCell>
        <mxCell id="qKfENgX-lE7Lz8fzQS4i-78" value="(a new block)" style="text;strokeColor=none;fillColor=none;align=left;verticalAlign=middle;spacingLeft=4;spacingRight=4;overflow=hidden;points=[[0,0.5],[1,0.5]];portConstraint=eastwest;rotatable=0;fontSize=10;fontColor=#000000;" parent="1" vertex="1">
          <mxGeometry x="574" y="382" width="71" height="30" as="geometry" />
        </mxCell>
        <mxCell id="WrlQomgTkeNxid4oXuMk-1" value="&lt;font style=&quot;font-size: 10px;&quot;&gt;...&lt;/font&gt;" style="text;html=1;strokeColor=none;fillColor=none;align=center;verticalAlign=middle;whiteSpace=wrap;rounded=0;" parent="1" vertex="1">
          <mxGeometry x="509" y="318" width="60" height="30" as="geometry" />
        </mxCell>
        <mxCell id="D1b6CC4PXVBS12xehJpQ-1" value="&lt;font color=&quot;#000000&quot;&gt;&lt;i&gt;Fabric&lt;br&gt;gateway&lt;/i&gt;&lt;/font&gt;" style="text;html=1;strokeColor=none;fillColor=none;align=center;verticalAlign=middle;whiteSpace=wrap;rounded=0;shadow=0;fontSize=10;fontColor=#0000CC;" parent="1" vertex="1">
          <mxGeometry x="246" y="280" width="80" height="30" as="geometry" />
        </mxCell>
        <mxCell id="1SxGntWKhithQQmJiJFG-1" value="(log matching property)" style="text;strokeColor=none;fillColor=none;align=left;verticalAlign=middle;spacingLeft=4;spacingRight=4;overflow=hidden;points=[[0,0.5],[1,0.5]];portConstraint=eastwest;rotatable=0;fontSize=10;fontColor=#000000;" parent="1" vertex="1">
          <mxGeometry x="264" y="383" width="123" height="15" as="geometry" />
        </mxCell>
        <mxCell id="WxGgQQilDwWy1r8uxRzi-1" value="Respond" style="text;strokeColor=none;fillColor=none;align=left;verticalAlign=middle;spacingLeft=4;spacingRight=4;overflow=hidden;points=[[0,0.5],[1,0.5]];portConstraint=eastwest;rotatable=0;fontSize=10;fontColor=#000000;" parent="1" vertex="1">
          <mxGeometry x="589" y="370" width="53" height="30" as="geometry" />
        </mxCell>
        <mxCell id="g3gnyQbQTHfjtjUEJihn-1" value="The ordering service" style="text;strokeColor=none;fillColor=none;align=left;verticalAlign=middle;spacingLeft=4;spacingRight=4;overflow=hidden;points=[[0,0.5],[1,0.5]];portConstraint=eastwest;rotatable=0;fontSize=10;fontColor=#000000;" parent="1" vertex="1">
          <mxGeometry x="434" y="376" width="177" height="30" as="geometry" />
        </mxCell>
        <mxCell id="g3gnyQbQTHfjtjUEJihn-2" value="Clients" style="text;strokeColor=none;fillColor=none;align=left;verticalAlign=middle;spacingLeft=4;spacingRight=4;overflow=hidden;points=[[0,0.5],[1,0.5]];portConstraint=eastwest;rotatable=0;fontSize=10;fontColor=#000000;" parent="1" vertex="1">
          <mxGeometry x="171" y="372" width="42" height="21" as="geometry" />
        </mxCell>
        <mxCell id="nf9CzbEmyUAtVoLiGvG7-1" value="" style="endArrow=none;html=1;rounded=0;" parent="1" edge="1">
          <mxGeometry width="50" height="50" relative="1" as="geometry">
            <mxPoint x="605" y="280" as="sourcePoint" />
            <mxPoint x="639" y="280" as="targetPoint" />
          </mxGeometry>
        </mxCell>
        <mxCell id="nf9CzbEmyUAtVoLiGvG7-2" value="" style="endArrow=classic;html=1;rounded=0;" parent="1" edge="1">
          <mxGeometry width="50" height="50" relative="1" as="geometry">
            <mxPoint x="639" y="280" as="sourcePoint" />
            <mxPoint x="639" y="380" as="targetPoint" />
          </mxGeometry>
        </mxCell>
      </root>
    </mxGraphModel>
  </diagram>
</mxfile>
